{"title":"[PC]Creature (2014) - 1CD - DVD-Rip clean audio - Hindi - x264.","uid":11028276,"size":737576730,"categoryP":"video","categoryS":"movies","magnet":"?xt=urn:btih:64b6c681bffcc8917ceeec6f886c58050faed72e&amp;dn=+%5BPC%5DCreature+%282014%29+-+1CD+-+DVD-Rip+clean+audio+-+Hindi+-+x264.&amp;tr=udp%3A%2F%2Ftracker.openbittorrent.com%3A80&amp;tr=udp%3A%2F%2Fopen.demonii.com%3A1337&amp;tr=udp%3A%2F%2Ftracker.coppersurfer.tk%3A6969&amp;tr=udp%3A%2F%2Fexodus.desync.com%3A6969","seeders":1,"leechers":0,"uploader":null,"files":1,"time":1410685366,"description":"\nIMDB Rating: 6.5/10.0\n\n\nGENRE: Horror | Sci-Fi\n\n\nGeneral\n\n\nFormat : Matroska\nFormat version : Version 4 / Version 2\nFile size : 703 MiB\nDuration : 2h 9mn\nOverall bit rate : 762 Kbps\nMovie name : Creature (2014)\nEncoded date : UTC 2014-09-13 11:31:47\n\n\n\n\nVideo\nID : 1\nFormat : AVC\nFormat/Info : Advanced Video Codec\nFormat profile : &lt;a class=&quot;__cf_email__&quot; href=&quot;/cdn-cgi/l/email-protection&quot; data-cfemail=&quot;3179585659717d031f00&quot;&gt;[email&amp;#160;protected]&lt;/a&gt;&lt;script cf-hash='f9e31' type=&quot;text/javascript&quot;&gt;\n/* &lt;![CDATA[ */!function(){try{var t=&quot;currentScript&quot;in document?document.currentScript:function(){for(var t=document.getElementsByTagName(&quot;script&quot;),e=t.length;e--;)if(t[e].getAttribute(&quot;cf-hash&quot;))return t[e]}();if(t&amp;&amp;t.previousSibling){var e,r,n,i,c=t.previousSibling,a=c.getAttribute(&quot;data-cfemail&quot;);if(a){for(e=&quot;&quot;,r=parseInt(a.substr(0,2),16),n=2;a.length-n;n+=2)i=parseInt(a.substr(n,2),16)^r,e+=String.fromCharCode(i);e=document.createTextNode(e),c.parentNode.replaceChild(e,c)}}}catch(u){}}();/* ]]&gt; */&lt;/script&gt;\nFormat settings, CABAC : Yes\nFormat settings, ReFrames : 4 frames\nCodec ID : V_MPEG4/ISO/AVC\nDuration : 2h 9mn\nBit rate : 680 Kbps\nWidth : 640 pixels\nHeight : 272 pixels\nDisplay aspect ratio : 2.35:1\nFrame rate mode : Constant\nFrame rate : 25.000 fps\nColor space : YUV\nChroma subsampling : 4:2:0\nBit depth : 8 bits\nScan type : Progressive\nBits/(Pixel*Frame) : 0.156\nStream size : 616 MiB (88%)\nTitle : Mafiaking\nLanguage : Hindi\nDefault : Yes\nForced : No\n\n\nID : 2\nFormat : MPEG Audio\nFormat version : Version 1\nFormat profile : Layer 3\nMode : Joint stereo\nMode extension : MS Stereo\nCodec ID : A_MPEG/L3\nCodec ID/Hint : MP3\nDuration : 2h 9mn\nBit rate mode : Constant\nBit rate : 80.0 Kbps\nChannel(s) : 2 channels\nSampling rate : 32.0 KHz\nCompression mode : Lossy\nStream size : 73.9 MiB (11%)\nTitle : Mafiaking\nWriting library : LAME3.99r\nEncoding settings : -m j -V 4 -q 2 -lowpass 13.5 -b 80\nLanguage : Hindi\nDefault : Yes\nForced : No\n","torrent":{"xt":"urn:btih:64b6c681bffcc8917ceeec6f886c58050faed72e","amp;dn":"+%5BPC%5DCreature+%282014%29+-+1CD+-+DVD-Rip+clean+audio+-+Hindi+-+x264.","amp;tr":["udp%3A%2F%2Ftracker.openbittorrent.com%3A80","udp%3A%2F%2Fopen.demonii.com%3A1337","udp%3A%2F%2Ftracker.coppersurfer.tk%3A6969","udp%3A%2F%2Fexodus.desync.com%3A6969"],"infoHash":"64b6c681bffcc8917ceeec6f886c58050faed72e","infoHashBuffer":{"type":"Buffer","data":[100,182,198,129,191,252,200,145,124,238,236,111,136,108,88,5,15,174,215,46]},"announce":[],"urlList":[]}}